HIERARCHY
ROOT hip
{
  OFFSET 90.1175 34.3601 -14.5952
  CHANNELS 6 Xposition Yposition Zposition Zrotation Xrotation Yrotation
  JOINT abdomen
  {
    OFFSET 0 20.6881 -0.73152
    CHANNELS 3 Zrotation Xrotation Yrotation
    JOINT chest
    {
      OFFSET 0 11.7043 -0.48768
      CHANNELS 3 Zrotation Xrotation Yrotation
      JOINT neck
      {
        OFFSET 0 22.1894 -2.19456
        CHANNELS 3 Zrotation Xrotation Yrotation
        JOINT head
        {
          OFFSET -0.24384 7.07133 1.2192
          CHANNELS 3 Zrotation Xrotation Yrotation
          JOINT leftEye
          {
            OFFSET 4.14528 8.04674 8.04672
            CHANNELS 3 Zrotation Xrotation Yrotation
            End Site
            {
              OFFSET 1 0 0
            }
          }
          JOINT rightEye
          {
            OFFSET -3.6576 8.04674 8.04672
            CHANNELS 3 Zrotation Xrotation Yrotation
            End Site
            {
              OFFSET 1 0 0
            }
          }
        }
      }
      JOINT rCollar
      {
        OFFSET -2.68224 19.2634 -4.8768
        CHANNELS 3 Zrotation Xrotation Yrotation
        JOINT rShldr
        {
          OFFSET -8.77824 -1.95073 1.46304
          CHANNELS 3 Zrotation Xrotation Yrotation
          JOINT rForeArm
          {
            OFFSET -28.1742 -1.7115 0.48768
            CHANNELS 3 Zrotation Xrotation Yrotation
            JOINT rHand
            {
              OFFSET -22.5879 0.773209 7.07136
              CHANNELS 3 Zrotation Xrotation Yrotation
              JOINT rThumb1
              {
                OFFSET -1.2192 -0.487915 3.41376
                CHANNELS 3 Zrotation Xrotation Yrotation
                JOINT rThumb2
                {
                  OFFSET -3.37035 -0.52449 3.41376
                  CHANNELS 3 Zrotation Xrotation Yrotation
                  End Site
                  {
                    OFFSET -1.78271 -1.18214 1.43049
                  }
                }
              }
              JOINT rIndex1
              {
                OFFSET -7.75947 0.938293 5.60832
                CHANNELS 3 Zrotation Xrotation Yrotation
                JOINT rIndex2
                {
                  OFFSET -2.54057 -0.884171 1.56538
                  CHANNELS 3 Zrotation Xrotation Yrotation
                  End Site
                  {
                    OFFSET -1.62519 -0.234802 1.16502
                  }
                }
              }
              JOINT rMid1
              {
                OFFSET -8.24714 1.18213 3.41376
                CHANNELS 3 Zrotation Xrotation Yrotation
                JOINT rMid2
                {
                  OFFSET -3.10165 -0.590103 1.0647
                  CHANNELS 3 Zrotation Xrotation Yrotation
                  End Site
                  {
                    OFFSET -2.48547 -0.328903 0.83742
                  }
                }
              }
              JOINT rRing1
              {
                OFFSET -8.82822 0.546677 1.51678
                CHANNELS 3 Zrotation Xrotation Yrotation
                JOINT rRing2
                {
                  OFFSET -2.60934 -0.819778 -0.0198488
                  CHANNELS 3 Zrotation Xrotation Yrotation
                  End Site
                  {
                    OFFSET -2.33842 -0.294052 0.168128
                  }
                }
              }
              JOINT rPinky1
              {
                OFFSET -8.27202 -0.0477905 -0.4584
                CHANNELS 3 Zrotation Xrotation Yrotation
                JOINT rPinky2
                {
                  OFFSET -1.82734 -0.647385 -0.700984
                  CHANNELS 3 Zrotation Xrotation Yrotation
                  End Site
                  {
                    OFFSET -1.69225 -0.51767 -0.607171
                  }
                }
              }
            }
          }
        }
      }
      JOINT lCollar
      {
        OFFSET 2.68224 19.2634 -4.8768
        CHANNELS 3 Zrotation Xrotation Yrotation
        JOINT lShldr
        {
          OFFSET 8.77824 -1.95073 1.46304
          CHANNELS 3 Zrotation Xrotation Yrotation
          JOINT lForeArm
          {
            OFFSET 28.1742 -1.7115 0.48768
            CHANNELS 3 Zrotation Xrotation Yrotation
            JOINT lHand
            {
              OFFSET 22.5879 0.773209 7.07136
              CHANNELS 3 Zrotation Xrotation Yrotation
              JOINT lThumb1
              {
                OFFSET 1.2192 -0.487915 3.41376
                CHANNELS 3 Zrotation Xrotation Yrotation
                JOINT lThumb2
                {
                  OFFSET 3.37035 -0.52449 3.41376
                  CHANNELS 3 Zrotation Xrotation Yrotation
                  End Site
                  {
                    OFFSET 1.78271 -1.18214 1.43049
                  }
                }
              }
              JOINT lIndex1
              {
                OFFSET 7.75947 0.938293 5.60832
                CHANNELS 3 Zrotation Xrotation Yrotation
                JOINT lIndex2
                {
                  OFFSET 2.54057 -0.884171 1.56538
                  CHANNELS 3 Zrotation Xrotation Yrotation
                  End Site
                  {
                    OFFSET 1.62519 -0.234802 1.16502
                  }
                }
              }
              JOINT lMid1
              {
                OFFSET 8.24714 1.18213 3.41376
                CHANNELS 3 Zrotation Xrotation Yrotation
                JOINT lMid2
                {
                  OFFSET 3.10165 -0.590103 1.0647
                  CHANNELS 3 Zrotation Xrotation Yrotation
                  End Site
                  {
                    OFFSET 2.48547 -0.328903 0.83742
                  }
                }
              }
              JOINT lRing1
              {
                OFFSET 8.82822 0.546677 1.51678
                CHANNELS 3 Zrotation Xrotation Yrotation
                JOINT lRing2
                {
                  OFFSET 2.60934 -0.819778 -0.0198488
                  CHANNELS 3 Zrotation Xrotation Yrotation
                  End Site
                  {
                    OFFSET 2.33842 -0.294052 0.168128
                  }
                }
              }
              JOINT lPinky1
              {
                OFFSET 8.27202 -0.0477905 -0.4584
                CHANNELS 3 Zrotation Xrotation Yrotation
                JOINT lPinky2
                {
                  OFFSET 1.82734 -0.647385 -0.700984
                  CHANNELS 3 Zrotation Xrotation Yrotation
                  End Site
                  {
                    OFFSET 1.69225 -0.51767 -0.607171
                  }
                }
              }
            }
          }
        }
      }
    }
  }
  JOINT rButtock
  {
    OFFSET -8.77824 4.35084 1.2192
    CHANNELS 3 Zrotation Xrotation Yrotation
    JOINT rThigh
    {
      OFFSET 0 -1.70687 -2.19456
      CHANNELS 3 Zrotation Xrotation Yrotation
      JOINT rShin
      {
        OFFSET 0 -36.8199 0.73152
        CHANNELS 3 Zrotation Xrotation Yrotation
        JOINT rFoot
        {
          OFFSET 0.73152 -45.1104 -5.12064
          CHANNELS 3 Zrotation Xrotation Yrotation
          End Site
          {
            OFFSET -1.1221 -3.69964 12.103
          }
        }
      }
    }
  }
  JOINT lButtock
  {
    OFFSET 8.77824 4.35084 1.2192
    CHANNELS 3 Zrotation Xrotation Yrotation
    JOINT lThigh
    {
      OFFSET 0 -1.70687 -2.19456
      CHANNELS 3 Zrotation Xrotation Yrotation
      JOINT lShin
      {
        OFFSET 0 -36.8199 0.73152
        CHANNELS 3 Zrotation Xrotation Yrotation
        JOINT lFoot
        {
          OFFSET -0.73152 -45.1104 -5.12064
          CHANNELS 3 Zrotation Xrotation Yrotation
          End Site
          {
            OFFSET 1.1221 -3.69964 12.103
          }
        }
      }
    }
  }
}
MOTION
Frames:	4
Frame Time:	0.00833333
58.3935 85.507 98.3174 -1.7002 0.00693919 0.032327 2.23577 -0.000463279 0.0604463 0.615839 0.00896614 0.106598 -2.22081e-014 0 -5.46658e-016 -6.51641e-014 3.18055e-015 -1.68967e-015 -0 0 0 -0 0 0 -1.09347e-014 3.2419e-017 -9.93923e-017 -2.26717e-013 3.54085e-016 -5.1684e-015 -3.92033e-012 1.19092e-012 -9.22361e-014 -4.47893e-011 -1.06636e-012 -1.14182e-012 -1.05656e-010 2.73152e-013 -2.64304e-012 -1.82466e-010 4.73903e-013 -4.56648e-012 -1.0565e-010 2.7472e-013 -2.65576e-012 7.73091 5.47488 0.417314 -1.05656e-010 2.73031e-013 -2.64622e-012 2.90554 0.965183 0.102902 -1.05648e-010 2.7323e-013 -2.6494e-012 10.2786 0.731801 0.0259123 -1.05667e-010 2.73528e-013 -2.63986e-012 2.22167 -0.733487 -0.20892 -1.10318e-014 3.57191e-017 -3.97569e-016 -2.29823e-013 6.7711e-016 -6.95746e-015 -3.91139e-012 -1.15275e-012 -6.36111e-014 -4.47989e-011 1.29869e-012 -1.15136e-012 -1.05655e-010 3.14911e-013 -2.66212e-012 -1.82448e-010 5.43875e-013 -4.57841e-012 -1.05658e-010 3.13682e-013 -2.65258e-012 -7.73091 5.47488 -0.417314 -1.05655e-010 3.14875e-013 -2.65258e-012 -2.90554 0.965183 -0.102902 -1.0566e-010 3.15272e-013 -2.65338e-012 -10.2786 0.731801 -0.0259123 -1.0565e-010 3.1567e-013 -2.65894e-012 -2.22167 -0.733487 0.20892 -2.03217e-016 0 -3.88251e-019 2.21385 -7.80145 -0.224392 0.00520601 8.55925 0.135739 -0.551104 -0.766402 0.0464829 2.03217e-016 0 3.88251e-019 1.18985 -1.92859 -0.00263987 0.00904871 -2.07859 0.074607 0.50765 3.99849 -0.13967 
60.966 85.5161 94.1922 0.458653 1.41585 0.215039 -0.217802 -3.39643 -1.7304 1.66139 1.18197 -0.347157 -3.06429 6.60271 -4.50529 5.77882 -8.20354 -8.14159 -0 0 0 -0 0 0 -1.40881e-013 -6.06103e-014 3.42282e-015 21.8388 9.35177 -0.439113 -3.44978 -1.44037 5.51836 0.0106925 2.29418 0.321493 4.53999e-010 -1.00728e-009 9.81148e-010 7.90941e-010 -1.7436e-009 1.69099e-009 4.54004e-010 -1.00728e-009 9.81136e-010 7.73091 5.47488 0.417314 4.53998e-010 -1.00728e-009 9.81144e-010 2.90554 0.965183 0.102902 4.54006e-010 -1.00728e-009 9.81142e-010 10.2786 0.731801 0.0259123 4.53988e-010 -1.00728e-009 9.81152e-010 2.22167 -0.733487 -0.20892 -1.4099e-013 -6.06116e-014 3.17124e-015 -22.6005 5.70665 0.12142 3.24644 -1.32328 -5.22354 -0.00191194 -0.97085 0.136373 1.01619e-009 7.09147e-010 -1.32984e-010 1.75499e-009 1.22483e-009 -2.28804e-010 1.01618e-009 7.09147e-010 -1.32979e-010 -7.73091 5.47488 -0.417314 1.01619e-009 7.09147e-010 -1.3298e-010 -2.90554 0.965183 -0.102902 1.01618e-009 7.09147e-010 -1.32979e-010 -10.2786 0.731801 -0.0259123 1.01619e-009 7.09146e-010 -1.32986e-010 -2.22167 -0.733487 0.20892 -2.03217e-016 0 -3.88251e-019 -1.69257 -8.0096 2.07614 0.00162763 9.18988 0.108545 -0.172109 -5.593 -4.0221 2.03217e-016 0 3.88251e-019 1.0655 -2.14477 0.720087 0.00570061 -2.3589 0.0761292 0.110999 1.96537 -1.15549 
60.9237 85.5247 94.2066 2.73795 2.90082 0.404964 -3.05028 -6.97316 -3.64105 2.78666 2.42396 -0.826501 -5.15597 13.4309 -9.47103 9.28829 -16.29 -17.3022 -0 0 0 -0 0 0 -2.81746e-013 -1.27552e-013 6.88292e-015 45.0894 19.2354 -0.943585 -6.79408 -2.91697 11.3593 -0.00607796 4.71617 0.662646 1.0526e-009 -2.0943e-009 2.0455e-009 1.83217e-009 -3.62527e-009 3.52543e-009 1.0526e-009 -2.0943e-009 2.04549e-009 7.73091 5.47488 0.417314 1.0526e-009 -2.0943e-009 2.0455e-009 2.90554 0.965183 0.102902 1.0526e-009 -2.0943e-009 2.0455e-009 10.2786 0.731801 0.0259123 1.05259e-009 -2.0943e-009 2.04551e-009 2.22167 -0.733487 -0.20892 -2.81871e-013 -1.27559e-013 6.68414e-015 -46.5187 11.7401 0.25276 6.42008 -2.68721 -10.7591 0.00110257 -2.002 0.281351 2.22509e-009 1.47047e-009 -2.83194e-010 3.84277e-009 2.53977e-009 -4.8731e-010 2.22508e-009 1.47047e-009 -2.83193e-010 -7.73091 5.47488 -0.417314 2.22509e-009 1.47047e-009 -2.83196e-010 -2.90554 0.965183 -0.102902 2.22508e-009 1.47047e-009 -2.83192e-010 -10.2786 0.731801 -0.0259123 2.22509e-009 1.47047e-009 -2.83202e-010 -2.22167 -0.733487 0.20892 -2.03217e-016 0 -3.88251e-019 -5.81285 -8.20401 4.50554 -0.00136075 9.84756 0.0799397 -0.522995 -10.5934 -8.41403 2.03217e-016 0 3.88251e-019 0.931609 -2.36776 1.48082 0.00212754 -2.65974 0.0780093 -0.38698 -0.191089 -2.22597 
60.8939 85.5281 94.203 4.74934 4.23347 0.581852 -5.76934 -10.1489 -5.38751 3.80832 3.52718 -1.25683 -5.95373 19.3041 -14.2422 10.1026 -22.551 -26.321 -0 0 0 -0 0 0 -4.00773e-013 -1.81896e-013 1.04673e-014 65.995 28.0482 -1.47284 -9.528 -4.16106 16.5948 -0.0456334 6.88168 0.970701 1.57331e-009 -3.02238e-009 2.94873e-009 2.73775e-009 -5.23175e-009 5.08209e-009 1.57331e-009 -3.02238e-009 2.94872e-009 7.73091 5.47488 0.417314 1.57331e-009 -3.02238e-009 2.94873e-009 2.90554 0.965183 0.102902 1.57331e-009 -3.02238e-009 2.94872e-009 10.2786 0.731801 0.0259123 1.5733e-009 -3.02238e-009 2.94873e-009 2.22167 -0.733487 -0.20892 -4.00908e-013 -1.81906e-013 1.03088e-014 -67.877 17.1196 0.379258 9.02414 -3.83806 -15.7025 0.00814401 -2.91248 0.409591 3.25987e-009 2.12681e-009 -3.93628e-010 5.62986e-009 3.67339e-009 -6.77254e-010 3.25986e-009 2.12681e-009 -3.9363e-010 -7.73091 5.47488 -0.417314 3.25987e-009 2.12681e-009 -3.93635e-010 -2.90554 0.965183 -0.102902 3.25986e-009 2.12681e-009 -3.9363e-010 -10.2786 0.731801 -0.0259123 3.25987e-009 2.12681e-009 -3.93641e-010 -2.22167 -0.733487 0.20892 -2.03217e-016 0 -3.88251e-019 -9.45555 -8.38479 6.68402 -0.00370408 10.4511 0.0538964 -1.51462 -14.9396 -12.5318 2.03217e-016 0 3.88251e-019 0.833157 -2.57579 2.16621 -0.000950817 -2.91954 0.079181 -0.898467 -2.09644 -3.18792 
